<?xml version="1.0" encoding="UTF-8"?>
<svg width="45px" height="30px" viewBox="0 0 45 30" version="1.1" xmlns="http://www.w3.org/2000/svg" xmlns:xlink="http://www.w3.org/1999/xlink">
    <!-- Generator: Sketch 40.2 (33826) - http://www.bohemiancoding.com/sketch -->
    <title>Path-4-Copy-2</title>
    <desc>Created with Sketch.</desc>
    <defs></defs>
    <g id="Page-1" stroke="none" stroke-width="1" fill="none" fill-rule="evenodd">
        <g id="Desktop-HD" transform="translate(-40.000000, -215.000000)">
            <g id="Path-4-Copy-2" transform="translate(40.000000, 215.000000)">
                <g id="path-5-link" fill="#000000">
                    <path d="M20.6860193,0.3859996 C31.763295,-0.3267276 34.3527873,9.3663648 34.3527873,9.3663648 C34.3527873,9.3663648 44.1353148,9.2238206 44.1353148,19.2020014 C44.1353148,29.1801843 35.9352552,29.3227305 35.9352552,29.3227305 L7.16311309,29.1801843 C7.16311309,29.1801843 0.689381182,27.2860987 0.689381182,20.9125483 C0.689381182,18.4892742 1.41588716,16.0008091 2.99115245,14.212911 C3.58012902,13.5444332 4.51649966,12.8508805 5.72450584,12.3598199 C6.93251202,11.8687571 8.60172014,11.9321831 8.60172014,11.9321831 L8.60172014,10.9343655 C8.60172014,10.9343655 9.60874507,1.0987268 20.6860193,0.3859996 L20.6860193,0.3859996 Z" id="path-5"></path>
                </g>
                <g id="path-5-link" fill="#FFFFFF">
                    <path d="M20.6860193,0.3859996 C31.763295,-0.3267276 34.3527873,9.3663648 34.3527873,9.3663648 C34.3527873,9.3663648 44.1353148,9.2238206 44.1353148,19.2020014 C44.1353148,29.1801843 35.9352552,29.3227305 35.9352552,29.3227305 L7.16311309,29.1801843 C7.16311309,29.1801843 0.689381182,27.2860987 0.689381182,20.9125483 C0.689381182,18.4892742 1.41588716,16.0008091 2.99115245,14.212911 C3.58012902,13.5444332 4.51649966,12.8508805 5.72450584,12.3598199 C6.93251202,11.8687571 8.60172014,11.9321831 8.60172014,11.9321831 L8.60172014,10.9343655 C8.60172014,10.9343655 9.60874507,1.0987268 20.6860193,0.3859996 L20.6860193,0.3859996 Z" id="path-5"></path>
                </g>
            </g>
        </g>
    </g>
</svg>